HIERARCHY
ROOT Hips
{
    OFFSET 0.000000 0.000000 0.000000
    CHANNELS 6 Xposition Yposition Zposition Zrotation Xrotation Yrotation
    JOINT Spine
    {
        OFFSET -0.000000 14.517291 0.000000
        CHANNELS 3 Zrotation Xrotation Yrotation
        JOINT Spine1
        {
            OFFSET -0.000000 37.558300 0.000000
            CHANNELS 3 Zrotation Xrotation Yrotation
            JOINT Neck
            {
                OFFSET -0.000000 37.404057 3.400369
                CHANNELS 3 Zrotation Xrotation Yrotation
                JOINT Head
                {
                    OFFSET -0.000000 24.785618 -3.540803
                    CHANNELS 3 Zrotation Xrotation Yrotation
                    End Site
                    {
                        OFFSET -0.000000 35.408028 0.000000
                    }
                }
            }
            JOINT LeftShoulder
            {
                OFFSET 6.992933 33.973492 -0.192664
                CHANNELS 3 Zrotation Xrotation Yrotation
                JOINT LeftArm
                {
                    OFFSET 21.527611 0.000000 0.000000
                    CHANNELS 3 Zrotation Xrotation Yrotation
                    JOINT LeftForeArm
                    {
                        OFFSET 56.353916 0.000000 0.000000
                        CHANNELS 3 Zrotation Xrotation Yrotation
                        JOINT LeftHand
                        {
                            OFFSET 47.774071 0.000000 0.000000
                            CHANNELS 3 Zrotation Xrotation Yrotation
                            End Site
                            {
                                OFFSET 26.556021 0.000000 0.000000
                            }
                        }
                    }
                }
            }
            JOINT RightShoulder
            {
                OFFSET -7.065357 33.973492 -0.192664
                CHANNELS 3 Zrotation Xrotation Yrotation
                JOINT RightArm
                {
                    OFFSET -21.527611 0.000000 0.000000
                    CHANNELS 3 Zrotation Xrotation Yrotation
                    JOINT RightForeArm
                    {
                        OFFSET -56.353916 0.000000 0.000000
                        CHANNELS 3 Zrotation Xrotation Yrotation
                        JOINT RightHand
                        {
                            OFFSET -47.774071 0.000000 0.000000
                            CHANNELS 3 Zrotation Xrotation Yrotation
                            End Site
                            {
                                OFFSET -26.556021 0.000000 0.000000
                            }
                        }
                    }
                }
            }
        }
    }
    JOINT LeftUpLeg
    {
        OFFSET 17.704014 0.000000 0.000000
        CHANNELS 3 Zrotation Xrotation Yrotation
        JOINT LeftLeg
        {
            OFFSET -0.000000 -81.181816 0.000000
            CHANNELS 3 Zrotation Xrotation Yrotation
            JOINT LeftFoot
            {
                OFFSET -0.000000 -62.821102 0.000000
                CHANNELS 3 Zrotation Xrotation Yrotation
                JOINT LeftToeBase
                {
                    OFFSET -0.000000 -11.507608 26.556021
                    CHANNELS 3 Zrotation Xrotation Yrotation
                    End Site
                    {
                        OFFSET -0.000000 0.000000 7.081605
                    }
                }
            }
        }
    }
    JOINT RightUpLeg
    {
        OFFSET -17.704014 0.000000 0.000000
        CHANNELS 3 Zrotation Xrotation Yrotation
        JOINT RightLeg
        {
            OFFSET -0.000000 -81.181816 0.000000
            CHANNELS 3 Zrotation Xrotation Yrotation
            JOINT RightFoot
            {
                OFFSET -0.000000 -62.821102 0.000000
                CHANNELS 3 Zrotation Xrotation Yrotation
                JOINT RightToeBase
                {
                    OFFSET -0.000000 -11.507608 26.556021
                    CHANNELS 3 Zrotation Xrotation Yrotation
                    End Site
                    {
                        OFFSET -0.000000 0.000000 7.081605
                    }
                }
            }
        }
    }
}
MOTION
Frames:    5
Frame Time:    0.008333
22.052496    147.055862    47.774815    3.406835    2.833192    -56.699196    0.249906    -1.298436    1.240540    3.210562    -2.209748    0.473031    18.996971    2.981728    19.117647    -15.343144    5.824718    16.222727    11.696359    0.778624    -14.933823    -3.992867    -6.573938    -19.590979    -4.352520    -1.306841    -86.007896    -3.166868    -4.627474    -26.187635    -7.511128    -0.972739    -4.038668    32.842361    -24.263697    57.981960    21.463007    -38.601334    94.208817    50.382328    -32.666096    58.653065    35.722874    -23.405882    26.626020    -27.854731    40.185871    3.068121    -1.478171    -12.026196    43.628963    0.000000    0.000000    0.000000    -28.495438    -7.668800    -18.878756    3.705083    31.410759    -7.045647    19.755890    -12.332983    6.057257    0.000000    0.000000    0.000000    
22.066978    147.050629    47.772190    3.410938    2.835576    -56.705090    0.245475    -1.299017    1.241119    3.225274    -2.205100    0.473406    18.998899    2.998350    19.121420    -15.368668    5.822774    16.226818    11.687182    0.781252    -14.934590    -3.982507    -6.562371    -19.589216    -4.330388    -1.295313    -86.000572    -3.174084    -4.593105    -26.186995    -7.553222    -1.015808    -4.021620    32.692299    -24.293434    57.977142    21.317778    -39.259060    93.134651    50.637932    -32.565926    58.886318    35.727570    -23.416977    26.638962    -27.857981    40.199326    3.069480    -1.472767    -12.023952    43.642914    0.000000    0.000000    0.000000    -28.500820    -7.685755    -18.886992    3.701102    31.424574    -7.043926    19.745039    -12.335751    6.074428    0.000000    0.000000    0.000000    
22.083105    147.043686    47.771854    3.415160    2.836355    -56.714424    0.253864    -1.301718    1.249139    3.211908    -2.193365    0.475432    19.017370    3.007812    19.119701    -15.394349    5.822053    16.221966    11.696835    0.789809    -14.941184    -3.975830    -6.572241    -19.587482    -4.338914    -1.284527    -86.000099    -3.175337    -4.589921    -26.191025    -7.575905    -1.041091    -4.017354    32.569130    -24.350052    57.985352    21.114193    -39.851826    92.076813    50.621994    -32.563698    59.067940    35.733860    -23.422905    26.642590    -27.873549    40.207985    3.074472    -1.469406    -12.033453    43.645523    0.000000    0.000000    0.000000    -28.508919    -7.702647    -18.877129    3.702763    31.432373    -7.016459    19.741261    -12.346645    6.061266    0.000000    0.000000    0.000000    
22.100367    147.041565    47.770126    3.423228    2.836516    -56.723347    0.251429    -1.297736    1.253461    3.213228    -2.196468    0.477114    19.015465    3.016762    19.121183    -15.398157    5.820571    16.224775    11.700664    0.791919    -14.954067    -3.968354    -6.575554    -19.572168    -4.328431    -1.262944    -85.998268    -3.187324    -4.555156    -26.205725    -7.604501    -1.070711    -4.010816    32.439194    -24.370953    57.985302    20.851643    -40.504040    91.031662    50.699623    -32.617645    59.111111    35.734310    -23.430677    26.658318    -27.881180    40.210896    3.070962    -1.466078    -12.031082    43.657497    0.000000    0.000000    0.000000    -28.516117    -7.726360    -18.869999    3.708543    31.448689    -7.025202    19.734268    -12.352476    6.055083    0.000000    0.000000    0.000000    
22.115166    147.036774    47.769089    3.421364    2.832580    -56.733925    0.251054    -1.285117    1.258750    3.217440    -2.191357    0.478823    19.016296    3.016793    19.123188    -15.416033    5.827734    16.226171    11.698092    0.791393    -14.953837    -3.958840    -6.576180    -19.558981    -4.315181    -1.248771    -85.991837    -3.178256    -4.528676    -26.264408    -7.632157    -1.108989    -4.002847    32.332592    -24.423281    57.983135    20.539724    -41.035072    89.944176    50.537930    -32.670090    59.123741    35.736633    -23.428545    26.652437    -27.962276    40.282890    3.140203    -1.387635    -12.109320    43.647022    0.000000    0.000000    0.000000    -28.522058    -7.740073    -18.863253    3.697463    31.457035    -7.012986    19.658216    -12.311389    6.136583    0.000000    0.000000    0.000000    
